<svg width="374" height="389" viewBox="0 0 374 389" fill="none" xmlns="http://www.w3.org/2000/svg">
<path fill-rule="evenodd" clip-rule="evenodd" d="M131.498 252.971C124.48 241.325 111.959 234.776 104.817 223.205C96.0074 208.932 81.8879 194.399 85.213 177.981C88.5288 161.609 108.768 155.758 120.818 144.197C132.918 132.589 141.861 118.59 156.195 109.882C176.094 97.7918 199.376 72.6085 219.634 84.1633C241.186 96.4558 227.771 131.75 235.718 155.239C240.703 169.972 252.968 180.612 257.317 195.543C262.685 213.971 270.01 233.436 263.777 251.567C257.171 270.788 240.003 284.048 223.046 295.25C204.579 307.45 182.432 327.895 162.307 318.601C139.907 308.256 144.232 274.101 131.498 252.971Z" fill="#FFECF2"/>
<path fill-rule="evenodd" clip-rule="evenodd" d="M120.557 258.615C112.697 245.167 98.3533 237.798 90.3485 224.44C80.4745 207.963 64.4608 191.302 68.68 172.045C72.8874 152.841 96.4444 145.548 110.652 131.769C124.919 117.932 135.585 101.374 152.372 90.8765C175.676 76.3018 203.191 46.3529 226.377 59.3956C251.043 73.2711 234.72 114.81 243.388 142.075C248.824 159.176 262.779 171.33 267.476 188.677C273.272 210.086 281.311 232.663 273.688 253.988C265.608 276.594 245.439 292.474 225.559 305.946C203.91 320.616 177.816 345.004 154.733 334.599C129.041 323.018 134.818 283.015 120.557 258.615Z" stroke="#FFD0E0" stroke-width="2"/>
</svg>
