<svg width="407" height="419" viewBox="0 0 407 419" fill="none" xmlns="http://www.w3.org/2000/svg">
<path fill-rule="evenodd" clip-rule="evenodd" d="M146.487 255.508C140.494 244.282 129.111 237.553 122.999 226.392C115.46 212.624 102.971 198.356 106.877 183.174C110.771 168.034 129.971 163.55 141.795 153.332C153.668 143.071 162.706 130.423 176.525 122.982C195.711 112.651 218.693 90.2476 237.064 102.031C256.608 114.568 242.355 146.9 248.64 169.239C252.582 183.25 263.527 193.79 266.865 207.956C270.986 225.438 276.885 243.986 270.178 260.628C263.07 278.27 246.381 289.827 229.988 299.472C212.136 309.976 190.444 328.006 172.088 318.341C151.657 307.584 157.36 275.874 146.487 255.508Z" fill="#FFECF2"/>
<path fill-rule="evenodd" clip-rule="evenodd" d="M131.603 271.449C123.78 256.797 108.923 248.014 100.945 233.446C91.1048 215.476 74.8038 196.853 79.902 177.036C84.9858 157.275 110.046 151.423 125.479 138.086C140.975 124.693 152.773 108.184 170.81 98.4715C195.852 84.987 225.849 55.7454 249.828 71.1261C275.337 87.4887 256.733 129.69 264.936 158.848C270.082 177.136 284.367 190.893 288.725 209.383C294.103 232.201 301.803 256.41 293.05 278.133C283.771 301.159 261.988 316.244 240.591 328.833C217.291 342.542 188.978 366.077 165.018 353.461C138.351 339.421 145.795 298.032 131.603 271.449Z" stroke="#FFD0E0" stroke-width="2"/>
</svg>
