<svg width="329" height="346" viewBox="0 0 329 346" fill="none" xmlns="http://www.w3.org/2000/svg">
<path fill-rule="evenodd" clip-rule="evenodd" d="M208.661 111.641C217.185 120.797 229.697 124.322 238.318 133.387C248.952 144.569 264.415 154.978 264.531 170.389C264.646 185.756 247.532 194.856 238.873 207.546C230.178 220.288 224.778 234.584 213.522 245.138C197.896 259.79 181.705 286.871 161.279 280.304C139.549 273.319 144.943 239.004 133.34 219.362C126.063 207.042 113.007 199.786 106.264 187.167C97.942 171.594 87.6617 155.457 89.8391 137.953C92.1473 119.398 105.092 104.21 118.237 90.9133C132.552 76.4336 148.619 53.8335 168.498 58.3903C190.623 63.4621 193.196 95.0299 208.661 111.641Z" fill="#FFECF2"/>
<path fill-rule="evenodd" clip-rule="evenodd" d="M217.742 93.921C229.059 106.077 245.672 110.757 257.118 122.793C271.237 137.639 291.768 151.461 291.921 171.922C292.074 192.326 269.352 204.408 257.855 221.256C246.31 238.174 239.14 257.156 224.196 271.169C203.449 290.623 181.952 326.579 154.831 317.86C125.98 308.585 133.141 263.025 117.736 236.945C108.074 220.587 90.7383 210.953 81.7854 194.198C70.7366 173.521 57.0871 152.096 59.9781 128.856C63.0427 104.22 80.2296 84.0538 97.6832 66.3996C116.69 47.1744 138.022 17.1676 164.416 23.2178C193.792 29.9518 197.209 71.8654 217.742 93.921Z" stroke="#FFD0E0" stroke-width="2"/>
</svg>
