<svg width="433" height="442" viewBox="0 0 433 442" fill="none" xmlns="http://www.w3.org/2000/svg">
<path fill-rule="evenodd" clip-rule="evenodd" d="M152.922 265.891C148.162 253.87 137.444 245.77 132.556 233.8C126.527 219.036 115.558 203.197 121.245 188.32C126.917 173.484 146.814 171.163 159.923 162.206C173.088 153.212 183.665 141.482 198.47 135.558C219.025 127.332 244.799 107.357 261.991 121.363C280.28 136.263 262.177 167.265 265.955 190.538C268.325 205.135 278.163 217.033 279.906 231.717C282.057 249.838 285.882 269.24 277.2 285.27C267.997 302.262 249.822 312.012 232.165 319.865C212.938 328.418 188.968 344.127 171.548 332.262C152.158 319.055 161.559 287.7 152.922 265.891Z" fill="#FFECF2"/>
<path fill-rule="evenodd" clip-rule="evenodd" d="M137.798 274.579C131.683 259.137 117.914 248.73 111.635 233.354C103.889 214.386 89.7985 194.039 97.1046 174.926C104.39 155.867 129.951 152.885 146.793 141.379C163.705 129.824 177.293 114.755 196.313 107.144C222.719 96.5777 255.83 70.9154 277.916 88.9087C301.411 108.051 278.155 147.878 283.009 177.776C286.053 196.529 298.692 211.813 300.931 230.677C303.694 253.957 308.608 278.882 297.454 299.475C285.632 321.305 262.283 333.83 239.6 343.919C214.899 354.905 184.106 375.087 161.726 359.844C136.817 342.878 148.894 302.596 137.798 274.579Z" stroke="#FFD0E0" stroke-width="2"/>
</svg>
