<svg width="8" height="6" viewBox="0 0 8 6" fill="none" xmlns="http://www.w3.org/2000/svg">
<path d="M3.72598 5.52308C3.75656 5.5675 3.79748 5.60381 3.84521 5.6289C3.89294 5.65399 3.94606 5.66709 3.99998 5.66709C4.0539 5.66709 4.10702 5.65399 4.15475 5.6289C4.20248 5.60381 4.2434 5.5675 4.27398 5.52308L7.27398 1.18975C7.3087 1.13977 7.32907 1.08123 7.33286 1.02048C7.33665 0.959741 7.32372 0.899123 7.29548 0.845213C7.26723 0.791303 7.22475 0.746164 7.17266 0.714701C7.12056 0.683237 7.06084 0.666653 6.99998 0.666748H0.999979C0.93926 0.666999 0.879758 0.683797 0.827872 0.715336C0.775987 0.746875 0.73368 0.791961 0.705502 0.845746C0.677324 0.899531 0.664341 0.95998 0.667949 1.02059C0.671557 1.0812 0.691619 1.13969 0.725979 1.18975L3.72598 5.52308Z" fill="#FCFCFC"/>
</svg>
