<svg width="44" height="44" viewBox="0 0 44 44" fill="none" xmlns="http://www.w3.org/2000/svg">
<path d="M43.9999 21.9972C43.999 21.551 43.7672 21.1369 43.3873 20.9027L38.9156 18.1461L43.392 15.36C43.7695 15.125 43.9992 14.7121 43.9999 14.2675C44.0006 13.8229 43.7721 13.4093 43.3953 13.1732L22.6844 0.19671C22.2658 -0.0655701 21.7341 -0.0655701 21.3155 0.19671L0.604655 13.1732C0.227907 13.4093 -0.000600375 13.8229 1.1848e-06 14.2675C0.000688682 14.7122 0.230399 15.1251 0.607921 15.36L5.05362 18.127L0.605944 20.907C0.22868 21.1428 -0.000342564 21.5564 8.7122e-05 22.0013C0.000516808 22.4462 0.230313 22.8594 0.608007 23.0945L5.05371 25.8615L0.605944 28.6413C0.229282 28.8768 0.000344933 29.2895 8.7122e-05 29.7337C-0.00017069 30.178 0.228336 30.591 0.604741 30.8268L21.3156 43.8033C21.5249 43.9344 21.7625 44 22 44C22.2375 44 22.4751 43.9344 22.6844 43.8033L43.3953 30.8268C43.7729 30.5902 44.0015 30.1753 43.9999 29.7297C43.9983 29.2841 43.7666 28.8709 43.3873 28.6371L38.9156 25.8806L43.392 23.0944C43.7709 22.8586 44.0009 22.4435 43.9999 21.9972ZM3.7228 14.2621L22 2.8104L40.2772 14.2621C40.1015 14.3714 22.5238 25.3119 22 25.638L3.7228 14.2621ZM40.2688 29.7434L22 41.1898L3.71919 29.7358L7.49089 27.3785L21.3189 35.9851C21.5273 36.1148 21.7637 36.1797 22 36.1797C22.2363 36.1797 22.4727 36.1148 22.6811 35.9851L36.471 27.4022L40.2688 29.7434ZM22 33.3723L3.72495 21.9979L7.49089 19.6441L21.3189 28.2507C21.5273 28.3805 21.7637 28.4454 22 28.4454C22.2363 28.4454 22.4727 28.3805 22.6811 28.2507L36.471 19.6678L40.2629 22.0053C40.1582 22.0706 22.4838 33.0711 22 33.3723Z" fill="#F78CB6"/>
</svg>
