<svg width="48" height="44" viewBox="0 0 48 44" fill="none" xmlns="http://www.w3.org/2000/svg">
<path d="M47.9982 38.4475V11.8153C48.0649 9.42403 46.1805 7.4315 43.7892 7.36484C43.69 7.36203 43.5905 7.36271 43.4912 7.36674H33.9504V5.55234C34.0151 3.06405 32.0503 0.994435 29.562 0.929791C29.5225 0.928783 29.483 0.928223 29.4435 0.928223H18.5564C16.0672 0.927327 14.0487 2.94451 14.0479 5.43369C14.0479 5.47324 14.0484 5.51279 14.0495 5.55223V7.36674H4.50874C2.11848 7.26893 0.101524 9.12714 0.00360608 11.5173C-0.000427168 11.6165 -0.00109938 11.7159 0.00170149 11.8153V38.4475C-0.0629425 40.9358 1.90181 43.0054 4.3901 43.07C4.42965 43.071 4.4692 43.0716 4.50863 43.0716H43.4912C45.9804 43.0725 47.9989 41.0553 47.9997 38.5661C47.9998 38.5266 47.9993 38.487 47.9982 38.4475ZM18.4362 3.27277C18.4762 3.27064 18.5163 3.26952 18.5564 3.26963H29.4435C30.6396 3.26784 31.6106 4.23604 31.6124 5.43213C31.6125 5.47223 31.6114 5.51234 31.6093 5.55234V7.36685H16.3908V5.55234C16.3262 4.35805 17.2419 3.33742 18.4362 3.27277ZM43.6115 40.7272C43.5715 40.7293 43.5314 40.7304 43.4913 40.7303H4.50874C3.31266 40.7321 2.34166 39.7639 2.33986 38.5678C2.33975 38.5277 2.34087 38.4876 2.343 38.4476V30.7798C2.98496 31.1987 3.7431 31.4037 4.50874 31.3652H16.3908V34.7601C16.4991 35.4657 17.0833 36.0012 17.7956 36.0478H30.2045C30.9168 36.0012 31.5009 35.4657 31.6093 34.7601V31.3652H43.4913C44.257 31.4038 45.0151 31.1989 45.6571 30.7798V38.4476C45.7216 39.6419 44.8058 40.6625 43.6115 40.7272ZM18.7321 33.7064V27.8532H29.268V33.7064H18.7321ZM43.6115 29.0207C43.5715 29.0228 43.5314 29.0239 43.4913 29.0238H31.6091V26.507C31.6091 25.8631 30.8482 25.5119 30.2043 25.5119H17.7956C17.1517 25.5119 16.3908 25.8631 16.3908 26.507V29.0238H4.50874C3.31266 29.0256 2.34166 28.0574 2.33986 26.8613C2.33975 26.8212 2.34087 26.7811 2.343 26.7411V11.8153C2.27388 10.7184 3.10708 9.77313 4.20401 9.70401C4.30551 9.69762 4.40746 9.69897 4.50874 9.70815H43.4913C44.5859 9.609 45.5536 10.416 45.6528 11.5106C45.662 11.6118 45.6633 11.7138 45.6569 11.8153V26.741C45.7216 27.9354 44.8058 28.956 43.6115 29.0207Z" fill="#FCFCFC"/>
</svg>
