<svg width="25" height="22" viewBox="0 0 25 22" fill="none" xmlns="http://www.w3.org/2000/svg">
<path d="M25 3.22866C23.4274 3.30404 23.4617 3.29789 23.284 3.31337L24.2153 0.547177C24.2153 0.547177 21.3081 1.65941 20.5711 1.85836C18.6356 0.0490841 15.7585 -0.0308567 13.7016 1.2839C12.0172 2.36082 11.1132 4.21017 11.4147 6.37175C8.13656 5.89865 5.37453 4.28257 3.19385 1.55824L2.50416 0.696743L1.98879 1.68103C1.33743 2.92477 1.12114 4.34684 1.37959 5.68521C1.48563 6.23428 1.66588 6.75796 1.91555 7.24832L1.32389 7.00988L1.2537 8.03801C1.18256 9.08239 1.51691 10.3015 2.14825 11.2989C2.32601 11.5798 2.55489 11.8883 2.845 12.1925L2.53925 12.1438L2.91233 13.3218C3.40271 14.8697 4.42123 16.0672 5.74303 16.7329C4.42295 17.3155 3.35655 17.6872 1.6037 18.2869L0 18.8352L1.48125 19.6774C2.04601 19.9986 4.04167 21.0711 6.01349 21.3929C10.3966 22.1078 15.3315 21.5256 18.6537 18.4138C21.4519 15.7929 22.3701 12.0646 22.1794 8.1848C22.1506 7.59744 22.3053 7.03686 22.615 6.60661C23.2355 5.74511 24.9962 3.23442 25 3.22866ZM21.4437 5.69413C20.9293 6.40844 20.6716 7.32072 20.7178 8.26256C20.9103 12.1761 19.8864 15.2111 17.6744 17.2828C15.0906 19.703 10.9228 20.653 6.24027 19.8891C5.39226 19.7508 4.51584 19.4412 3.79047 19.1319C5.26009 18.6061 6.39496 18.1373 8.22773 17.2352L10.7862 15.9758L7.96146 15.7877C6.60839 15.6976 5.48172 15.0157 4.78916 13.9084C5.1569 13.8862 5.51147 13.8243 5.86452 13.7219L8.55865 12.9416L5.84202 12.2497C4.52194 11.9134 3.76949 11.092 3.37067 10.462C3.10879 10.048 2.9377 9.62393 2.83508 9.23295C3.10745 9.30893 3.42503 9.36308 3.93715 9.41584L6.45161 9.67451L4.45938 8.05824C3.02391 6.89384 2.44865 5.14447 2.87037 3.46273C7.35035 8.29529 12.6104 7.93208 13.1399 8.05983C13.0234 6.88253 13.0203 6.87976 12.9898 6.76768C12.3117 4.27484 13.7978 3.00908 14.468 2.58061C15.868 1.68579 18.0902 1.5509 19.6295 3.02514C19.9619 3.34332 20.4115 3.46849 20.8322 3.35978C21.2099 3.26219 21.5198 3.15884 21.8233 3.04637L21.1916 4.9225L21.998 4.92309C21.8458 5.13534 21.6633 5.38945 21.4437 5.69413Z" fill="#F78CB6"/>
</svg>
