<svg width="309" height="351" viewBox="0 0 309 351" fill="none" xmlns="http://www.w3.org/2000/svg">
<path d="M308.885 211.297C308.885 296.773 249.221 342.289 155.911 350.364C36.5825 333.766 0.245605 287.353 0.245605 201.876C0.245605 116.4 69.5378 47.1079 155.014 47.1079C240.49 47.1079 308.885 125.821 308.885 211.297Z" fill="#FCFCFC"/>
<path fill-rule="evenodd" clip-rule="evenodd" d="M268.511 309.939V290.802C268.482 280.602 264.416 270.828 257.202 263.615C249.987 256.402 240.21 252.337 230.007 252.309H80.021C69.818 252.337 60.0412 256.402 52.8266 263.615C45.612 270.828 41.5461 280.602 41.5172 290.802V309.939C73.561 336.084 113.653 350.364 155.014 350.364C196.375 350.364 236.467 336.084 268.511 309.939Z" fill="#E7E3E7"/>
<path fill-rule="evenodd" clip-rule="evenodd" d="M140.438 349.781C145.233 350.164 150.101 350.365 155.023 350.365C159.946 350.365 164.649 350.164 169.389 349.8L162.99 307.515L154.914 304.617L146.856 307.515L140.438 349.781Z" fill="#D26070"/>
<path fill-rule="evenodd" clip-rule="evenodd" d="M169.954 289.125L162.972 307.515H154.896H146.837L139.855 289.125L143.355 286.136L154.896 283.366L166.454 286.136L169.954 289.125Z" fill="#A94B64"/>
<path fill-rule="evenodd" clip-rule="evenodd" d="M268.511 309.939V290.802C268.482 280.602 264.416 270.827 257.202 263.615C249.987 256.402 240.21 252.337 230.007 252.309H172.561L169.553 254.131L180.273 287.157L173.309 349.38C208.235 345.851 241.347 332.114 268.511 309.884V309.939ZM41.5172 309.939V290.802C41.5461 280.602 45.612 270.827 52.8266 263.615C60.0412 256.402 69.818 252.337 80.021 252.309H137.449L140.475 254.131L129.755 287.157L136.719 349.38C101.799 345.867 68.6875 332.149 41.5172 309.939Z" fill="#4C3B82"/>
<path fill-rule="evenodd" clip-rule="evenodd" d="M177.046 277.242L180.273 287.211L173.309 349.435C180.558 348.711 187.755 347.536 194.858 345.917L208.914 318.76L191.759 264.538C186.435 266.033 181.495 270.753 177.046 277.242Z" fill="#30295E"/>
<path fill-rule="evenodd" clip-rule="evenodd" d="M155.005 161.707C163.211 161.75 171.069 165.029 176.872 170.83C182.675 176.631 185.954 184.487 185.998 192.692V252.145C185.954 260.349 182.675 268.205 176.872 274.006C171.069 279.807 163.211 283.086 155.005 283.129C146.797 283.09 138.936 279.814 133.132 274.011C127.328 268.209 124.051 260.35 124.012 252.145V192.764C124.031 184.546 127.301 176.669 133.107 170.851C138.913 165.033 146.784 161.746 155.005 161.707Z" fill="#F4CBBB"/>
<path fill-rule="evenodd" clip-rule="evenodd" d="M155.005 161.707C163.211 161.75 171.069 165.029 176.872 170.83C182.675 176.631 185.954 184.487 185.998 192.692V243.724C177.629 247.674 168.489 249.722 159.235 249.721C146.622 249.695 134.308 245.885 123.885 238.785V192.764C123.904 184.524 127.191 176.628 133.024 170.806C138.858 164.984 146.762 161.712 155.005 161.707Z" fill="#E4BAA9"/>
<path fill-rule="evenodd" clip-rule="evenodd" d="M72.8927 152.521C72.7604 157.76 74.7137 162.838 78.3235 166.638C81.9333 170.438 86.9043 172.65 92.1446 172.789H93.0744C91.0778 165.991 90.0347 158.95 89.9751 151.865V145.833C89.9751 133.457 73.3667 134.277 72.8927 152.521Z" fill="#EBBFAE"/>
<path fill-rule="evenodd" clip-rule="evenodd" d="M237.135 152.521C237.268 157.76 235.314 162.838 231.705 166.638C228.095 170.438 223.124 172.65 217.884 172.789H216.954C218.942 165.99 219.985 158.949 220.053 151.865V145.833C220.053 133.457 236.589 134.277 237.135 152.521Z" fill="#EBBFAE"/>
<path fill-rule="evenodd" clip-rule="evenodd" d="M155.023 37.8074C119.236 37.8074 89.9751 68.0625 89.9751 105.025V166.136C89.9751 203.099 119.236 233.335 155.023 233.335C190.792 233.335 220.053 203.099 220.053 166.136V105.025C220.053 68.0625 190.792 37.8074 155.023 37.8074Z" fill="#F4CBBB"/>
<path fill-rule="evenodd" clip-rule="evenodd" d="M158.359 161.398C159.617 165.043 161.823 171.477 161.641 172.497C161.368 173.901 153.875 174.32 151.906 172.115C150.593 170.675 152.234 165.298 153.638 161.708C155.588 156.732 156.664 156.477 158.359 161.398Z" fill="#FBDDD2"/>
<path fill-rule="evenodd" clip-rule="evenodd" d="M132.526 120.863C132.865 121.016 133.17 121.235 133.425 121.506C133.679 121.777 133.877 122.096 134.008 122.443C134.14 122.791 134.201 123.161 134.189 123.533C134.177 123.904 134.092 124.27 133.939 124.609C133.786 124.947 133.567 125.252 133.296 125.507C133.025 125.761 132.706 125.959 132.358 126.091C132.011 126.222 131.64 126.283 131.269 126.271C130.897 126.259 130.531 126.174 130.193 126.021C127.513 124.88 124.603 124.383 121.697 124.57C118.79 124.757 115.968 125.622 113.457 127.096C113.141 127.309 112.785 127.456 112.411 127.528C112.037 127.601 111.653 127.598 111.28 127.519C110.908 127.44 110.555 127.287 110.242 127.069C109.93 126.851 109.664 126.573 109.462 126.251C109.259 125.928 109.123 125.569 109.062 125.193C109.001 124.817 109.016 124.433 109.106 124.063C109.197 123.693 109.361 123.345 109.588 123.039C109.815 122.734 110.102 122.477 110.43 122.285C121.205 115.505 132.508 120.845 132.526 120.863Z" fill="#30295E"/>
<path fill-rule="evenodd" clip-rule="evenodd" d="M199.47 122.121C199.826 122.284 200.144 122.519 200.405 122.812C200.666 123.104 200.863 123.447 200.985 123.819C201.107 124.191 201.151 124.584 201.113 124.974C201.076 125.364 200.959 125.742 200.769 126.084C200.579 126.426 200.32 126.726 200.009 126.963C199.698 127.201 199.341 127.372 198.96 127.465C198.58 127.559 198.184 127.572 197.798 127.506C197.412 127.439 197.044 127.293 196.717 127.078C194.139 125.722 191.279 124.989 188.366 124.938C185.453 124.888 182.569 125.521 179.945 126.786C179.615 126.96 179.254 127.067 178.882 127.101C178.51 127.135 178.136 127.094 177.78 126.982C177.424 126.871 177.094 126.689 176.808 126.449C176.523 126.209 176.288 125.915 176.116 125.584C175.769 124.913 175.701 124.133 175.926 123.413C176.152 122.693 176.652 122.091 177.32 121.738C188.623 115.833 199.434 122.102 199.47 122.121Z" fill="#30295E"/>
<path fill-rule="evenodd" clip-rule="evenodd" d="M228.786 137.795C228.786 137.795 220.053 137.995 220.053 145.833C216.321 140.525 214.59 134.068 215.167 127.607C215.167 127.607 198.486 108.159 199.251 86.4341C200.017 64.7088 216.917 60.0794 216.917 60.0794C257.554 71.9445 228.786 100.705 228.786 137.795Z" fill="#30295E"/>
<path fill-rule="evenodd" clip-rule="evenodd" d="M81.2242 137.795C81.2242 137.795 89.975 137.995 89.975 145.833C93.7069 140.525 95.4379 134.068 94.861 127.607C94.861 127.607 111.542 108.159 110.777 86.4341C110.011 64.7088 93.0926 60.0794 93.0926 60.0794C52.4558 71.9445 81.2242 100.705 81.2242 137.795Z" fill="#30295E"/>
<path fill-rule="evenodd" clip-rule="evenodd" d="M177.611 21.4222C183.866 18.1394 190.904 16.6419 197.954 17.0939C205.004 17.5459 211.793 19.93 217.577 23.9847C223.361 28.0394 227.917 33.6082 230.744 40.0803C233.572 46.5524 234.562 53.6779 233.606 60.6753C232.65 67.6728 229.785 74.272 225.325 79.7492C220.866 85.2264 214.984 89.3701 208.324 91.726C201.664 94.0818 194.484 94.5587 187.571 93.1044C180.658 91.6501 174.279 88.3208 169.134 83.4816C167.417 86.7936 164.93 89.6449 161.881 91.7958C158.833 93.9466 155.312 95.334 151.616 95.8413C147.919 96.3485 144.155 95.9608 140.639 94.7108C137.124 93.4607 133.96 91.3848 131.414 88.6578C129.072 91.8648 125.948 94.4199 122.339 96.0802C118.731 97.7406 114.758 98.4511 110.798 98.1443C106.837 97.8375 103.021 96.5236 99.7119 94.3273C96.4025 92.131 93.7098 89.1254 91.8894 85.5958C87.4941 84.5828 83.3499 82.6897 79.7068 80.0309C76.0637 77.3721 72.9973 74.0028 70.6929 70.1264C68.3885 66.25 66.8939 61.9469 66.2993 57.4769C65.7046 53.007 66.0222 48.4629 67.233 44.1191C68.4438 39.7753 70.5226 35.7218 73.3439 32.2035C76.1652 28.6852 79.6705 25.775 83.6481 23.6487C87.6256 21.5223 91.993 20.2239 96.4865 19.8318C100.98 19.4398 105.506 19.9622 109.792 21.3675C112.951 15.0806 117.796 9.79541 123.785 6.10214C129.775 2.40887 136.674 0.453003 143.711 0.453003C150.748 0.453003 157.647 2.40887 163.637 6.10214C169.626 9.79541 174.471 15.0806 177.63 21.3675L177.611 21.4222Z" fill="#30295E"/>
<path fill-rule="evenodd" clip-rule="evenodd" d="M155.005 283.275L176.882 304.307C176.882 304.307 184.995 309.064 188.222 302.157C191.449 295.249 201.239 252.218 201.239 252.218L185.998 246.567C185.998 246.567 185.232 273.214 155.005 283.275Z" fill="#FCFCFC"/>
<path fill-rule="evenodd" clip-rule="evenodd" d="M241.292 262.552C241.369 262.468 241.461 262.4 241.564 262.352C241.667 262.304 241.778 262.277 241.891 262.271C242.005 262.266 242.118 262.284 242.225 262.322C242.332 262.361 242.43 262.42 242.514 262.497C242.597 262.574 242.665 262.666 242.713 262.769C242.761 262.872 242.789 262.983 242.794 263.096C242.799 263.21 242.782 263.323 242.743 263.43C242.704 263.536 242.645 263.634 242.568 263.718C242.568 263.718 234.765 271.902 234.765 291.458V331.719L232.942 332.576V291.458C232.942 271.209 241.274 262.57 241.292 262.552Z" fill="#1C1341"/>
<path fill-rule="evenodd" clip-rule="evenodd" d="M132.982 277.242L129.755 287.157L136.719 349.38C129.47 348.657 122.273 347.482 115.17 345.863L101.096 318.706L118.27 264.484C123.557 266.033 128.534 270.753 132.982 277.242Z" fill="#30295E"/>
<path fill-rule="evenodd" clip-rule="evenodd" d="M155.005 283.275L133.128 304.307C133.128 304.307 124.997 309.064 121.788 302.157C118.579 295.249 108.771 252.218 108.771 252.218L124.012 246.567C124.012 246.567 124.796 273.214 155.005 283.275Z" fill="#FCFCFC"/>
<path fill-rule="evenodd" clip-rule="evenodd" d="M68.7178 262.552C68.6394 262.468 68.5447 262.402 68.4397 262.357C68.3347 262.311 68.2215 262.288 68.107 262.288C67.9926 262.288 67.8794 262.311 67.7744 262.357C67.6694 262.402 67.5747 262.468 67.4963 262.552C67.4153 262.631 67.3509 262.726 67.307 262.831C67.2631 262.936 67.2404 263.049 67.2404 263.162C67.2404 263.276 67.2631 263.388 67.307 263.493C67.3509 263.598 67.4153 263.693 67.4963 263.773C67.4963 263.773 75.2992 271.956 75.2992 291.513V331.774L77.0311 332.63V291.458C76.9947 271.209 68.7543 262.57 68.7178 262.552Z" fill="#1C1341"/>
<path fill-rule="evenodd" clip-rule="evenodd" d="M122.499 158.135C124.093 158.135 125.651 157.663 126.976 156.777C128.301 155.892 129.334 154.634 129.944 153.162C130.554 151.69 130.713 150.07 130.402 148.508C130.091 146.945 129.324 145.509 128.197 144.383C127.07 143.256 125.634 142.489 124.071 142.178C122.508 141.867 120.888 142.027 119.415 142.637C117.943 143.246 116.685 144.279 115.799 145.604C114.914 146.928 114.441 148.486 114.441 150.079C114.446 152.214 115.296 154.26 116.807 155.77C118.317 157.28 120.363 158.13 122.499 158.135Z" fill="#30295E"/>
<path fill-rule="evenodd" clip-rule="evenodd" d="M187.511 158.135C189.104 158.135 190.662 157.663 191.988 156.777C193.313 155.892 194.346 154.634 194.955 153.162C195.565 151.69 195.725 150.07 195.414 148.508C195.103 146.945 194.336 145.509 193.209 144.383C192.082 143.256 190.646 142.489 189.083 142.178C187.52 141.867 185.9 142.027 184.427 142.637C182.955 143.246 181.696 144.279 180.811 145.604C179.925 146.928 179.453 148.486 179.453 150.079C179.458 152.214 180.308 154.26 181.818 155.77C183.328 157.28 185.375 158.13 187.511 158.135Z" fill="#30295E"/>
<path fill-rule="evenodd" clip-rule="evenodd" d="M169.243 186.659C169.312 188.57 168.994 190.475 168.31 192.26C167.626 194.046 166.589 195.676 165.261 197.052C163.933 198.428 162.341 199.522 160.58 200.27C158.82 201.017 156.927 201.403 155.014 201.403C153.101 201.403 151.208 201.017 149.448 200.27C147.687 199.522 146.096 198.428 144.767 197.052C143.439 195.676 142.402 194.046 141.718 192.26C141.034 190.475 140.716 188.57 140.785 186.659C140.79 185.966 141.068 185.303 141.56 184.815C142.052 184.326 142.717 184.052 143.41 184.052H166.618C167.311 184.052 167.976 184.326 168.468 184.815C168.96 185.303 169.239 185.966 169.243 186.659Z" fill="#FFCCE0"/>
</svg>
